<?xml version="1.0" standalone="no"?>
<!DOCTYPE svg PUBLIC "-//W3C//DTD SVG 20010904//EN"
 "http://www.w3.org/TR/2001/REC-SVG-20010904/DTD/svg10.dtd">
<svg version="1.0" xmlns="http://www.w3.org/2000/svg"
 width="1242.000000pt" height="1738.000000pt" viewBox="0 0 1242.000000 1738.000000"
 preserveAspectRatio="xMidYMid meet">
<metadata>
Created by potrace 1.16, written by Peter Selinger 2001-2019
</metadata>
<g transform="translate(0.000000,1738.000000) scale(0.100000,-0.100000)"
fill="#000000" stroke="none">
<path d="M0 8690 l0 -8690 6210 0 6210 0 0 8690 0 8690 -6210 0 -6210 0 0
-8690z m6620 2149 c47 -5 114 -12 150 -15 36 -3 88 -11 115 -18 28 -8 75 -19
105 -26 381 -88 790 -333 1091 -655 219 -235 407 -557 499 -855 12 -41 26 -84
30 -95 9 -22 31 -132 56 -270 23 -131 24 -524 0 -660 -30 -175 -47 -247 -91
-380 -122 -367 -296 -649 -568 -919 -222 -219 -488 -393 -772 -504 -145 -56
-329 -108 -490 -138 -139 -26 -556 -27 -690 -1 -375 73 -607 161 -875 330
-126 80 -188 126 -283 211 -126 113 -150 137 -218 216 -35 41 -72 83 -82 95
-23 25 -143 204 -174 259 -119 212 -195 403 -254 636 -46 185 -67 452 -51 682
6 89 16 190 22 223 13 74 58 261 70 295 5 14 23 66 40 115 149 421 482 848
864 1105 153 102 348 205 456 238 19 6 71 22 115 36 108 34 241 67 290 72 22
2 99 11 170 19 72 9 146 17 165 19 45 5 201 -3 310 -15z"/>
<path d="M6140 10785 c-203 -24 -421 -77 -525 -128 -16 -8 -50 -23 -75 -33
-83 -34 -291 -144 -353 -186 -106 -72 -229 -168 -292 -228 -122 -116 -284
-295 -294 -324 -2 -6 -11 -20 -21 -31 -52 -61 -240 -403 -240 -437 0 -8 -3
-17 -6 -21 -10 -10 -62 -164 -89 -263 -51 -184 -67 -321 -68 -559 0 -194 3
-238 26 -370 14 -82 33 -175 42 -205 25 -82 65 -201 80 -235 7 -16 25 -59 40
-95 153 -361 443 -703 811 -958 5 -4 20 -13 32 -19 12 -7 60 -35 107 -62 48
-27 130 -68 183 -91 53 -23 106 -45 117 -50 50 -23 224 -72 316 -91 396 -78
834 -55 1174 62 406 140 719 358 1027 716 107 124 286 439 348 613 136 377
170 737 109 1150 -14 95 -70 315 -103 402 -72 191 -205 430 -327 588 -86 111
-273 303 -376 384 -260 204 -566 354 -873 426 -69 16 -114 24 -307 50 -95 13
-332 11 -463 -5z m550 -810 c213 -49 389 -127 552 -245 105 -75 267 -245 344
-360 67 -98 134 -224 134 -249 0 -6 -12 -11 -28 -11 -24 0 -32 9 -62 68 -50
98 -130 216 -203 302 -294 343 -797 528 -1229 454 -125 -21 -305 -69 -318 -84
-3 -3 -52 -30 -110 -59 -250 -125 -477 -354 -604 -608 -30 -61 -40 -73 -61
-73 -14 0 -25 6 -25 13 0 20 93 198 139 266 96 140 281 315 427 404 162 98
397 179 584 201 87 10 387 -2 460 -19z m-910 -1060 l0 -95 -38 0 c-97 0 -192
-13 -192 -26 0 -8 6 -14 14 -14 15 0 108 -92 115 -113 2 -7 14 -25 27 -42 38
-51 106 -208 196 -455 39 -105 112 -190 165 -190 55 0 101 69 168 250 102 278
165 410 196 410 17 0 52 -85 120 -291 72 -218 111 -302 162 -356 35 -37 70
-42 103 -15 23 18 84 105 84 119 0 4 18 51 39 103 22 52 58 145 82 205 41 109
92 217 110 239 6 6 19 25 29 43 11 18 42 47 69 65 28 18 51 38 51 45 0 8 -25
13 -77 15 l-78 3 0 95 0 95 368 3 367 2 0 -95 0 -95 -32 -2 c-18 0 -42 0 -53
1 -11 1 -62 -1 -113 -4 -103 -8 -113 -19 -41 -45 24 -9 51 -19 59 -22 8 -4 23
-9 33 -12 16 -5 16 -8 -2 -53 -39 -101 -53 -133 -60 -133 -3 0 -60 16 -125 35
-138 41 -155 42 -188 15 -28 -22 -138 -237 -138 -270 0 -5 -4 -18 -9 -28 -5
-9 -16 -35 -24 -57 -36 -100 -114 -275 -143 -325 -36 -62 -122 -148 -174 -175
-47 -24 -144 -25 -194 0 -73 35 -178 164 -208 256 -16 49 -30 79 -38 79 -3 0
-12 -17 -19 -37 -50 -139 -132 -258 -203 -294 -53 -27 -134 -35 -184 -19 -108
36 -214 174 -303 393 -45 112 -81 211 -81 225 0 7 -4 20 -10 30 -5 9 -24 51
-43 92 -35 79 -86 134 -134 146 -34 9 -135 -12 -185 -37 -68 -35 -79 -29 -116
62 -18 44 -30 84 -28 87 2 4 34 18 70 32 93 34 87 50 -18 50 -46 0 -91 3 -100
6 -13 5 -16 23 -16 93 0 48 3 91 7 94 3 4 170 7 370 7 l363 0 0 -95z m-771
-252 c5 -21 15 -103 21 -183 12 -157 18 -186 62 -330 54 -175 168 -370 301
-517 56 -60 208 -185 282 -229 203 -123 487 -204 716 -204 572 0 1070 337
1283 869 48 120 80 258 95 417 10 109 42 198 57 160 12 -30 -5 -271 -25 -364
-98 -444 -366 -790 -767 -990 -113 -57 -178 -80 -319 -117 -123 -33 -358 -44
-500 -26 -315 42 -588 175 -811 396 -152 151 -202 219 -286 389 -109 220 -148
381 -148 616 0 125 2 150 15 150 8 0 18 -16 24 -37z"/>
</g>
</svg>
